<svg width="17" height="24" viewBox="0 0 17 24" fill="none" xmlns="http://www.w3.org/2000/svg">
<path id="female" d="M16.7966 7.76471C16.7966 3.47294 13.2129 0 8.78427 0C4.35564 0 0.771942 3.47294 0.771942 7.76471C0.771942 11.5765 3.59811 14.7247 7.32748 15.3882V18.3529H4.41391V21.1765H7.32748V24H10.2411V21.1765H13.1546V18.3529H10.2411V15.3882C13.9704 14.7247 16.7966 11.5765 16.7966 7.76471ZM3.68552 7.76471C3.68552 5.04 5.97267 2.82353 8.78427 2.82353C11.5959 2.82353 13.883 5.04 13.883 7.76471C13.883 10.4894 11.5959 12.7059 8.78427 12.7059C5.97267 12.7059 3.68552 10.4894 3.68552 7.76471Z" fill="black"/>
</svg>
