<svg width="52" height="52" viewBox="0 0 52 52" fill="none" xmlns="http://www.w3.org/2000/svg">
<g id="Perm identity" clip-path="url(#clip0_5_171)">
<path id="Vector" d="M26 12.7833C28.5133 12.7833 30.55 14.82 30.55 17.3333C30.55 19.8467 28.5133 21.8833 26 21.8833C23.4867 21.8833 21.45 19.8467 21.45 17.3333C21.45 14.82 23.4867 12.7833 26 12.7833ZM26 32.2833C32.435 32.2833 39.2167 35.4467 39.2167 36.8333V39.2167H12.7833V36.8333C12.7833 35.4467 19.565 32.2833 26 32.2833ZM26 8.66666C21.2117 8.66666 17.3333 12.545 17.3333 17.3333C17.3333 22.1217 21.2117 26 26 26C30.7883 26 34.6667 22.1217 34.6667 17.3333C34.6667 12.545 30.7883 8.66666 26 8.66666ZM26 28.1667C20.215 28.1667 8.66666 31.07 8.66666 36.8333V43.3333H43.3333V36.8333C43.3333 31.07 31.785 28.1667 26 28.1667Z" fill="black"/>
</g>
<defs>
<clipPath id="clip0_5_171">
<rect width="52" height="52" fill="white"/>
</clipPath>
</defs>
</svg>
