<svg width="25" height="24" viewBox="0 0 25 24" fill="none" xmlns="http://www.w3.org/2000/svg">
<path id="male" d="M8.57704 10.5C11.4765 10.5 13.8351 12.855 13.8351 15.75C13.8351 18.645 11.4765 21 8.57704 21C5.67758 21 3.31895 18.645 3.31895 15.75C3.31895 12.855 5.67758 10.5 8.57704 10.5ZM8.57704 7.5C4.01002 7.5 0.314331 11.19 0.314331 15.75C0.314331 20.31 4.01002 24 8.57704 24C13.1441 24 16.8398 20.31 16.8398 15.75C16.8398 14.01 16.2989 12.405 15.3825 11.07L21.3467 5.13V9H24.3513V0H15.3374V3H19.2134L13.2492 8.955C11.9272 8.04 10.3197 7.5 8.57704 7.5Z" fill="black"/>
</svg>
