<?xml version="1.0" encoding="UTF-8"?>
<svg width="350" height="350" xmlns="http://www.w3.org/2000/svg">
 <g class="layer">
  <title>Layer 1</title>
  <ellipse cx="175.26" cy="175.53" fill="#FFE812" id="svg_5" rx="172.5" ry="172.5"/>
  <path d="m176,83c-57.44,0 -104,36.71 -104,82c0,29.28 19.47,54.97 48.75,69.48c-1.6,5.49 -10.24,35.34 -10.58,37.69c0,0 -0.21,1.76 0.93,2.43s2.48,0.15 2.48,0.15c3.28,-0.46 37.95,-24.81 43.95,-29.04c5.99,0.85 12.17,1.29 18.47,1.29c57.44,0 104,-36.71 104,-82c0,-45.29 -46.56,-82 -104,-82z" id="svg_2"/>
  <path d="m118.5,193.63c-3.31,0 -6,-2.57 -6,-5.73l0,-35.65l-9.36,0c-3.25,0 -5.89,-2.64 -5.89,-5.87s2.64,-5.88 5.89,-5.88l30.72,0c3.25,0 5.89,2.64 5.89,5.88s-2.64,5.87 -5.89,5.87l-9.36,0l0,35.65c0,3.16 -2.69,5.73 -6,5.73zm52.61,-0.08c-2.5,0 -4.41,-1.02 -4.99,-2.65l-2.97,-7.78l-18.3,0l-2.97,7.78c-0.58,1.63 -2.49,2.65 -4.99,2.65a9.15,9.15 0 0 1 -3.81,-0.83c-1.66,-0.76 -3.25,-2.86 -1.43,-8.52l14.36,-37.78c1.01,-2.87 4.08,-5.83 7.99,-5.92c3.91,0.09 6.99,3.05 8,5.93l14.34,37.76c1.83,5.67 0.24,7.77 -1.41,8.53a9.18,9.18 0 0 1 -3.82,0.83c0,0 0,0 0,0zm-11.12,-21.06l-5.99,-17.02l-5.99,17.02l11.98,0zm26.01,20.26c-3.17,0 -5.75,-2.47 -5.75,-5.5l0,-40.75c0,-3.31 2.75,-6 6.13,-6s6.12,2.69 6.12,6l0,35.25l12.75,0c3.17,0 5.75,2.47 5.75,5.5s-2.58,5.5 -5.75,5.5l-19.25,0zm33.33,0.8c-3.3,0 -6,-2.69 -6,-6l0,-41.05c0,-3.31 2.7,-6 6,-6s6,2.69 6,6l0,12.9l16.74,-16.74c0.87,-0.86 2.05,-1.34 3.33,-1.34c1.5,0 3,0.65 4.13,1.77c1.05,1.05 1.68,2.4 1.77,3.81c0.08,1.41 -0.39,2.71 -1.33,3.65l-13.67,13.67l14.77,19.57a5.95,5.95 0 0 1 1.15,4.44a5.96,5.96 0 0 1 -2.33,3.96a5.94,5.94 0 0 1 -3.61,1.21a5.95,5.95 0 0 1 -4.79,-2.38l-14.07,-18.65l-2.08,2.08l0,13.09a6.01,6.01 0 0 1 -6.01,6.01z" fill="#FFE812" id="svg_3"/>
 </g>
</svg>